<?xml version="1.0" encoding="UTF-8" standalone="no"?>
<svg
   id="max-icon"
   viewBox="0 0 240 240"
   version="1.1"
   xmlns="http://www.w3.org/2000/svg">
  <rect
     style="fill:#875a7b;fill-opacity:1;stroke-width:3.60801"
     id="rect-bg"
     width="240"
     height="240"
     x="0"
     y="0"
     rx="60"
     ry="60" />
  <path
     fill="#ffffff"
     fill-rule="evenodd"
     d="M122.671 201.199c-18.002 0-26.367-2.628-40.909-13.14-9.198 11.826-38.325 21.068-39.595 5.256 0-11.87-2.628-21.9-5.607-32.849-3.548-13.491-7.577-28.514-7.577-50.282 0-51.99 42.661-91.103 93.205-91.103 50.588 0 90.227 41.04 90.227 91.585.17 49.763-39.983 90.269-89.744 90.533Zm.745-137.18c-24.615-1.27-43.8 15.768-48.048 42.486-3.504 22.119 2.716 49.055 8.015 50.457 2.54.613 8.935-4.555 12.921-8.541a45.552 45.552 0 0 0 22.25 7.927c25.506 1.227 47.3-18.19 49.012-43.672.997-25.531-18.641-47.162-44.15-48.657Z"
     clip-rule="evenodd"
     id="path-logo" />
</svg>
